<mxfile host="65bd71144e" pages="3">
    <diagram id="u6M44NYShtGvKwdcMnED" name="Физическая модель">
        <mxGraphModel dx="1139" dy="116" grid="1" gridSize="10" guides="1" tooltips="1" connect="1" arrows="1" fold="1" page="1" pageScale="1" pageWidth="827" pageHeight="1169" math="0" shadow="0">
            <root>
                <mxCell id="0"/>
                <mxCell id="1" parent="0"/>
                <mxCell id="XEnF2gIqBOLM984kFY1K-173" value="Аналитики" style="shape=table;startSize=30;container=1;collapsible=1;childLayout=tableLayout;fixedRows=1;rowLines=0;fontStyle=1;align=center;resizeLast=1;html=1;" parent="1" vertex="1">
                    <mxGeometry x="380" y="870" width="260" height="245" as="geometry">
                        <mxRectangle x="640" y="1110" width="100" height="30" as="alternateBounds"/>
                    </mxGeometry>
                </mxCell>
                <mxCell id="XEnF2gIqBOLM984kFY1K-174" value="" style="shape=tableRow;horizontal=0;startSize=0;swimlaneHead=0;swimlaneBody=0;fillColor=none;collapsible=0;dropTarget=0;points=[[0,0.5],[1,0.5]];portConstraint=eastwest;top=0;left=0;right=0;bottom=1;" parent="XEnF2gIqBOLM984kFY1K-173" vertex="1">
                    <mxGeometry y="30" width="260" height="20" as="geometry"/>
                </mxCell>
                <mxCell id="XEnF2gIqBOLM984kFY1K-175" value="PK" style="shape=partialRectangle;connectable=0;fillColor=none;top=0;left=0;bottom=0;right=0;fontStyle=1;overflow=hidden;whiteSpace=wrap;html=1;" parent="XEnF2gIqBOLM984kFY1K-174" vertex="1">
                    <mxGeometry width="30.000000000000114" height="20" as="geometry">
                        <mxRectangle width="30.000000000000114" height="20" as="alternateBounds"/>
                    </mxGeometry>
                </mxCell>
                <mxCell id="XEnF2gIqBOLM984kFY1K-176" value="Analyst_ID: UUID PK" style="shape=partialRectangle;connectable=0;fillColor=none;top=0;left=0;bottom=0;right=0;align=left;spacingLeft=6;fontStyle=5;overflow=hidden;whiteSpace=wrap;html=1;" parent="XEnF2gIqBOLM984kFY1K-174" vertex="1">
                    <mxGeometry x="30.000000000000114" width="229.9999999999999" height="20" as="geometry">
                        <mxRectangle width="229.9999999999999" height="20" as="alternateBounds"/>
                    </mxGeometry>
                </mxCell>
                <mxCell id="XEnF2gIqBOLM984kFY1K-177" value="" style="shape=tableRow;horizontal=0;startSize=0;swimlaneHead=0;swimlaneBody=0;fillColor=none;collapsible=0;dropTarget=0;points=[[0,0.5],[1,0.5]];portConstraint=eastwest;top=0;left=0;right=0;bottom=0;" parent="XEnF2gIqBOLM984kFY1K-173" vertex="1">
                    <mxGeometry y="50" width="260" height="25" as="geometry"/>
                </mxCell>
                <mxCell id="XEnF2gIqBOLM984kFY1K-178" value="" style="shape=partialRectangle;connectable=0;fillColor=none;top=0;left=0;bottom=0;right=0;editable=1;overflow=hidden;whiteSpace=wrap;html=1;" parent="XEnF2gIqBOLM984kFY1K-177" vertex="1">
                    <mxGeometry width="30.000000000000114" height="25" as="geometry">
                        <mxRectangle width="30.000000000000114" height="25" as="alternateBounds"/>
                    </mxGeometry>
                </mxCell>
                <mxCell id="XEnF2gIqBOLM984kFY1K-179" value="Last_name: VARCHAR (20) NOT NULL" style="shape=partialRectangle;connectable=0;fillColor=none;top=0;left=0;bottom=0;right=0;align=left;spacingLeft=6;overflow=hidden;whiteSpace=wrap;html=1;" parent="XEnF2gIqBOLM984kFY1K-177" vertex="1">
                    <mxGeometry x="30.000000000000114" width="229.9999999999999" height="25" as="geometry">
                        <mxRectangle width="229.9999999999999" height="25" as="alternateBounds"/>
                    </mxGeometry>
                </mxCell>
                <mxCell id="XEnF2gIqBOLM984kFY1K-180" style="shape=tableRow;horizontal=0;startSize=0;swimlaneHead=0;swimlaneBody=0;fillColor=none;collapsible=0;dropTarget=0;points=[[0,0.5],[1,0.5]];portConstraint=eastwest;top=0;left=0;right=0;bottom=0;" parent="XEnF2gIqBOLM984kFY1K-173" vertex="1">
                    <mxGeometry y="75" width="260" height="25" as="geometry"/>
                </mxCell>
                <mxCell id="XEnF2gIqBOLM984kFY1K-181" style="shape=partialRectangle;connectable=0;fillColor=none;top=0;left=0;bottom=0;right=0;editable=1;overflow=hidden;whiteSpace=wrap;html=1;" parent="XEnF2gIqBOLM984kFY1K-180" vertex="1">
                    <mxGeometry width="30.000000000000114" height="25" as="geometry">
                        <mxRectangle width="30.000000000000114" height="25" as="alternateBounds"/>
                    </mxGeometry>
                </mxCell>
                <mxCell id="XEnF2gIqBOLM984kFY1K-182" value="First_name: VARCHAR (223) NOT NULL" style="shape=partialRectangle;connectable=0;fillColor=none;top=0;left=0;bottom=0;right=0;align=left;spacingLeft=6;overflow=hidden;whiteSpace=wrap;html=1;" parent="XEnF2gIqBOLM984kFY1K-180" vertex="1">
                    <mxGeometry x="30.000000000000114" width="229.9999999999999" height="25" as="geometry">
                        <mxRectangle width="229.9999999999999" height="25" as="alternateBounds"/>
                    </mxGeometry>
                </mxCell>
                <mxCell id="XEnF2gIqBOLM984kFY1K-183" style="shape=tableRow;horizontal=0;startSize=0;swimlaneHead=0;swimlaneBody=0;fillColor=none;collapsible=0;dropTarget=0;points=[[0,0.5],[1,0.5]];portConstraint=eastwest;top=0;left=0;right=0;bottom=0;" parent="XEnF2gIqBOLM984kFY1K-173" vertex="1">
                    <mxGeometry y="100" width="260" height="25" as="geometry"/>
                </mxCell>
                <mxCell id="XEnF2gIqBOLM984kFY1K-184" style="shape=partialRectangle;connectable=0;fillColor=none;top=0;left=0;bottom=0;right=0;editable=1;overflow=hidden;whiteSpace=wrap;html=1;" parent="XEnF2gIqBOLM984kFY1K-183" vertex="1">
                    <mxGeometry width="30.000000000000114" height="25" as="geometry">
                        <mxRectangle width="30.000000000000114" height="25" as="alternateBounds"/>
                    </mxGeometry>
                </mxCell>
                <mxCell id="XEnF2gIqBOLM984kFY1K-185" value="Patronymic: VARCHAR&amp;nbsp;(223)" style="shape=partialRectangle;connectable=0;fillColor=none;top=0;left=0;bottom=0;right=0;align=left;spacingLeft=6;overflow=hidden;whiteSpace=wrap;html=1;" parent="XEnF2gIqBOLM984kFY1K-183" vertex="1">
                    <mxGeometry x="30.000000000000114" width="229.9999999999999" height="25" as="geometry">
                        <mxRectangle width="229.9999999999999" height="25" as="alternateBounds"/>
                    </mxGeometry>
                </mxCell>
                <mxCell id="XEnF2gIqBOLM984kFY1K-186" style="shape=tableRow;horizontal=0;startSize=0;swimlaneHead=0;swimlaneBody=0;fillColor=none;collapsible=0;dropTarget=0;points=[[0,0.5],[1,0.5]];portConstraint=eastwest;top=0;left=0;right=0;bottom=0;" parent="XEnF2gIqBOLM984kFY1K-173" vertex="1">
                    <mxGeometry y="125" width="260" height="30" as="geometry"/>
                </mxCell>
                <mxCell id="XEnF2gIqBOLM984kFY1K-187" value="" style="shape=partialRectangle;connectable=0;fillColor=none;top=0;left=0;bottom=0;right=0;editable=1;overflow=hidden;whiteSpace=wrap;html=1;" parent="XEnF2gIqBOLM984kFY1K-186" vertex="1">
                    <mxGeometry width="30.000000000000114" height="30" as="geometry">
                        <mxRectangle width="30.000000000000114" height="30" as="alternateBounds"/>
                    </mxGeometry>
                </mxCell>
                <mxCell id="XEnF2gIqBOLM984kFY1K-188" value="Date_of_birth: DATE NOT NULL" style="shape=partialRectangle;connectable=0;fillColor=none;top=0;left=0;bottom=0;right=0;align=left;spacingLeft=6;overflow=hidden;whiteSpace=wrap;html=1;" parent="XEnF2gIqBOLM984kFY1K-186" vertex="1">
                    <mxGeometry x="30.000000000000114" width="229.9999999999999" height="30" as="geometry">
                        <mxRectangle width="229.9999999999999" height="30" as="alternateBounds"/>
                    </mxGeometry>
                </mxCell>
                <mxCell id="XEnF2gIqBOLM984kFY1K-189" style="shape=tableRow;horizontal=0;startSize=0;swimlaneHead=0;swimlaneBody=0;fillColor=none;collapsible=0;dropTarget=0;points=[[0,0.5],[1,0.5]];portConstraint=eastwest;top=0;left=0;right=0;bottom=0;" parent="XEnF2gIqBOLM984kFY1K-173" vertex="1">
                    <mxGeometry y="155" width="260" height="30" as="geometry"/>
                </mxCell>
                <mxCell id="XEnF2gIqBOLM984kFY1K-190" value="" style="shape=partialRectangle;connectable=0;fillColor=none;top=0;left=0;bottom=0;right=0;editable=1;overflow=hidden;whiteSpace=wrap;html=1;" parent="XEnF2gIqBOLM984kFY1K-189" vertex="1">
                    <mxGeometry width="30.000000000000114" height="30" as="geometry">
                        <mxRectangle width="30.000000000000114" height="30" as="alternateBounds"/>
                    </mxGeometry>
                </mxCell>
                <mxCell id="XEnF2gIqBOLM984kFY1K-191" value="Gender: ENUM NOT NULL" style="shape=partialRectangle;connectable=0;fillColor=none;top=0;left=0;bottom=0;right=0;align=left;spacingLeft=6;overflow=hidden;whiteSpace=wrap;html=1;" parent="XEnF2gIqBOLM984kFY1K-189" vertex="1">
                    <mxGeometry x="30.000000000000114" width="229.9999999999999" height="30" as="geometry">
                        <mxRectangle width="229.9999999999999" height="30" as="alternateBounds"/>
                    </mxGeometry>
                </mxCell>
                <mxCell id="XEnF2gIqBOLM984kFY1K-192" style="shape=tableRow;horizontal=0;startSize=0;swimlaneHead=0;swimlaneBody=0;fillColor=none;collapsible=0;dropTarget=0;points=[[0,0.5],[1,0.5]];portConstraint=eastwest;top=0;left=0;right=0;bottom=0;" parent="XEnF2gIqBOLM984kFY1K-173" vertex="1">
                    <mxGeometry y="185" width="260" height="30" as="geometry"/>
                </mxCell>
                <mxCell id="XEnF2gIqBOLM984kFY1K-193" style="shape=partialRectangle;connectable=0;fillColor=none;top=0;left=0;bottom=0;right=0;editable=1;overflow=hidden;whiteSpace=wrap;html=1;" parent="XEnF2gIqBOLM984kFY1K-192" vertex="1">
                    <mxGeometry width="30.000000000000114" height="30" as="geometry">
                        <mxRectangle width="30.000000000000114" height="30" as="alternateBounds"/>
                    </mxGeometry>
                </mxCell>
                <mxCell id="XEnF2gIqBOLM984kFY1K-194" value="E-mail: VARCHAR (255) UNIQUE NOT NULL&amp;nbsp;" style="shape=partialRectangle;connectable=0;fillColor=none;top=0;left=0;bottom=0;right=0;align=left;spacingLeft=6;overflow=hidden;whiteSpace=wrap;html=1;" parent="XEnF2gIqBOLM984kFY1K-192" vertex="1">
                    <mxGeometry x="30.000000000000114" width="229.9999999999999" height="30" as="geometry">
                        <mxRectangle width="229.9999999999999" height="30" as="alternateBounds"/>
                    </mxGeometry>
                </mxCell>
                <mxCell id="XEnF2gIqBOLM984kFY1K-195" style="shape=tableRow;horizontal=0;startSize=0;swimlaneHead=0;swimlaneBody=0;fillColor=none;collapsible=0;dropTarget=0;points=[[0,0.5],[1,0.5]];portConstraint=eastwest;top=0;left=0;right=0;bottom=0;" parent="XEnF2gIqBOLM984kFY1K-173" vertex="1">
                    <mxGeometry y="215" width="260" height="30" as="geometry"/>
                </mxCell>
                <mxCell id="XEnF2gIqBOLM984kFY1K-196" style="shape=partialRectangle;connectable=0;fillColor=none;top=0;left=0;bottom=0;right=0;editable=1;overflow=hidden;whiteSpace=wrap;html=1;" parent="XEnF2gIqBOLM984kFY1K-195" vertex="1">
                    <mxGeometry width="30.000000000000114" height="30" as="geometry">
                        <mxRectangle width="30.000000000000114" height="30" as="alternateBounds"/>
                    </mxGeometry>
                </mxCell>
                <mxCell id="XEnF2gIqBOLM984kFY1K-197" value="Phone: VARCHAR (15) UNIQUE&amp;nbsp;NOT NULL" style="shape=partialRectangle;connectable=0;fillColor=none;top=0;left=0;bottom=0;right=0;align=left;spacingLeft=6;overflow=hidden;whiteSpace=wrap;html=1;" parent="XEnF2gIqBOLM984kFY1K-195" vertex="1">
                    <mxGeometry x="30.000000000000114" width="229.9999999999999" height="30" as="geometry">
                        <mxRectangle width="229.9999999999999" height="30" as="alternateBounds"/>
                    </mxGeometry>
                </mxCell>
                <mxCell id="XEnF2gIqBOLM984kFY1K-198" value="Проблемы" style="shape=table;startSize=30;container=1;collapsible=1;childLayout=tableLayout;fixedRows=1;rowLines=0;fontStyle=1;align=center;resizeLast=1;html=1;" parent="1" vertex="1">
                    <mxGeometry x="-190" y="720" width="290" height="275" as="geometry"/>
                </mxCell>
                <mxCell id="XEnF2gIqBOLM984kFY1K-199" value="" style="shape=tableRow;horizontal=0;startSize=0;swimlaneHead=0;swimlaneBody=0;fillColor=none;collapsible=0;dropTarget=0;points=[[0,0.5],[1,0.5]];portConstraint=eastwest;top=0;left=0;right=0;bottom=1;" parent="XEnF2gIqBOLM984kFY1K-198" vertex="1">
                    <mxGeometry y="30" width="290" height="30" as="geometry"/>
                </mxCell>
                <mxCell id="XEnF2gIqBOLM984kFY1K-200" value="PK" style="shape=partialRectangle;connectable=0;fillColor=none;top=0;left=0;bottom=0;right=0;fontStyle=1;overflow=hidden;whiteSpace=wrap;html=1;" parent="XEnF2gIqBOLM984kFY1K-199" vertex="1">
                    <mxGeometry width="30" height="30" as="geometry">
                        <mxRectangle width="30" height="30" as="alternateBounds"/>
                    </mxGeometry>
                </mxCell>
                <mxCell id="XEnF2gIqBOLM984kFY1K-201" value="Problem_ID: UUID PK" style="shape=partialRectangle;connectable=0;fillColor=none;top=0;left=0;bottom=0;right=0;align=left;spacingLeft=6;fontStyle=5;overflow=hidden;whiteSpace=wrap;html=1;" parent="XEnF2gIqBOLM984kFY1K-199" vertex="1">
                    <mxGeometry x="30" width="260" height="30" as="geometry">
                        <mxRectangle width="260" height="30" as="alternateBounds"/>
                    </mxGeometry>
                </mxCell>
                <mxCell id="XEnF2gIqBOLM984kFY1K-202" value="" style="shape=tableRow;horizontal=0;startSize=0;swimlaneHead=0;swimlaneBody=0;fillColor=none;collapsible=0;dropTarget=0;points=[[0,0.5],[1,0.5]];portConstraint=eastwest;top=0;left=0;right=0;bottom=0;" parent="XEnF2gIqBOLM984kFY1K-198" vertex="1">
                    <mxGeometry y="60" width="290" height="30" as="geometry"/>
                </mxCell>
                <mxCell id="XEnF2gIqBOLM984kFY1K-203" value="" style="shape=partialRectangle;connectable=0;fillColor=none;top=0;left=0;bottom=0;right=0;editable=1;overflow=hidden;whiteSpace=wrap;html=1;" parent="XEnF2gIqBOLM984kFY1K-202" vertex="1">
                    <mxGeometry width="30" height="30" as="geometry">
                        <mxRectangle width="30" height="30" as="alternateBounds"/>
                    </mxGeometry>
                </mxCell>
                <mxCell id="XEnF2gIqBOLM984kFY1K-204" value="Name: VARCHAR(100) NOT NULL" style="shape=partialRectangle;connectable=0;fillColor=none;top=0;left=0;bottom=0;right=0;align=left;spacingLeft=6;overflow=hidden;whiteSpace=wrap;html=1;" parent="XEnF2gIqBOLM984kFY1K-202" vertex="1">
                    <mxGeometry x="30" width="260" height="30" as="geometry">
                        <mxRectangle width="260" height="30" as="alternateBounds"/>
                    </mxGeometry>
                </mxCell>
                <mxCell id="XEnF2gIqBOLM984kFY1K-205" value="" style="shape=tableRow;horizontal=0;startSize=0;swimlaneHead=0;swimlaneBody=0;fillColor=none;collapsible=0;dropTarget=0;points=[[0,0.5],[1,0.5]];portConstraint=eastwest;top=0;left=0;right=0;bottom=0;" parent="XEnF2gIqBOLM984kFY1K-198" vertex="1">
                    <mxGeometry y="90" width="290" height="30" as="geometry"/>
                </mxCell>
                <mxCell id="XEnF2gIqBOLM984kFY1K-206" value="" style="shape=partialRectangle;connectable=0;fillColor=none;top=0;left=0;bottom=0;right=0;editable=1;overflow=hidden;whiteSpace=wrap;html=1;" parent="XEnF2gIqBOLM984kFY1K-205" vertex="1">
                    <mxGeometry width="30" height="30" as="geometry">
                        <mxRectangle width="30" height="30" as="alternateBounds"/>
                    </mxGeometry>
                </mxCell>
                <mxCell id="XEnF2gIqBOLM984kFY1K-207" value="Description: TEXT NOT NULL" style="shape=partialRectangle;connectable=0;fillColor=none;top=0;left=0;bottom=0;right=0;align=left;spacingLeft=6;overflow=hidden;whiteSpace=wrap;html=1;" parent="XEnF2gIqBOLM984kFY1K-205" vertex="1">
                    <mxGeometry x="30" width="260" height="30" as="geometry">
                        <mxRectangle width="260" height="30" as="alternateBounds"/>
                    </mxGeometry>
                </mxCell>
                <mxCell id="XEnF2gIqBOLM984kFY1K-208" value="" style="shape=tableRow;horizontal=0;startSize=0;swimlaneHead=0;swimlaneBody=0;fillColor=none;collapsible=0;dropTarget=0;points=[[0,0.5],[1,0.5]];portConstraint=eastwest;top=0;left=0;right=0;bottom=0;" parent="XEnF2gIqBOLM984kFY1K-198" vertex="1">
                    <mxGeometry y="120" width="290" height="30" as="geometry"/>
                </mxCell>
                <mxCell id="XEnF2gIqBOLM984kFY1K-209" value="" style="shape=partialRectangle;connectable=0;fillColor=none;top=0;left=0;bottom=0;right=0;editable=1;overflow=hidden;whiteSpace=wrap;html=1;" parent="XEnF2gIqBOLM984kFY1K-208" vertex="1">
                    <mxGeometry width="30" height="30" as="geometry">
                        <mxRectangle width="30" height="30" as="alternateBounds"/>
                    </mxGeometry>
                </mxCell>
                <mxCell id="XEnF2gIqBOLM984kFY1K-210" value="Location:&amp;nbsp;DECIMAL(8,5)" style="shape=partialRectangle;connectable=0;fillColor=none;top=0;left=0;bottom=0;right=0;align=left;spacingLeft=6;overflow=hidden;whiteSpace=wrap;html=1;" parent="XEnF2gIqBOLM984kFY1K-208" vertex="1">
                    <mxGeometry x="30" width="260" height="30" as="geometry">
                        <mxRectangle width="260" height="30" as="alternateBounds"/>
                    </mxGeometry>
                </mxCell>
                <mxCell id="XEnF2gIqBOLM984kFY1K-211" style="shape=tableRow;horizontal=0;startSize=0;swimlaneHead=0;swimlaneBody=0;fillColor=none;collapsible=0;dropTarget=0;points=[[0,0.5],[1,0.5]];portConstraint=eastwest;top=0;left=0;right=0;bottom=0;" parent="XEnF2gIqBOLM984kFY1K-198" vertex="1">
                    <mxGeometry y="150" width="290" height="30" as="geometry"/>
                </mxCell>
                <mxCell id="XEnF2gIqBOLM984kFY1K-212" style="shape=partialRectangle;connectable=0;fillColor=none;top=0;left=0;bottom=0;right=0;editable=1;overflow=hidden;whiteSpace=wrap;html=1;" parent="XEnF2gIqBOLM984kFY1K-211" vertex="1">
                    <mxGeometry width="30" height="30" as="geometry">
                        <mxRectangle width="30" height="30" as="alternateBounds"/>
                    </mxGeometry>
                </mxCell>
                <mxCell id="XEnF2gIqBOLM984kFY1K-213" value="Category: ENUM NOT NULL" style="shape=partialRectangle;connectable=0;fillColor=none;top=0;left=0;bottom=0;right=0;align=left;spacingLeft=6;overflow=hidden;whiteSpace=wrap;html=1;" parent="XEnF2gIqBOLM984kFY1K-211" vertex="1">
                    <mxGeometry x="30" width="260" height="30" as="geometry">
                        <mxRectangle width="260" height="30" as="alternateBounds"/>
                    </mxGeometry>
                </mxCell>
                <mxCell id="XEnF2gIqBOLM984kFY1K-214" style="shape=tableRow;horizontal=0;startSize=0;swimlaneHead=0;swimlaneBody=0;fillColor=none;collapsible=0;dropTarget=0;points=[[0,0.5],[1,0.5]];portConstraint=eastwest;top=0;left=0;right=0;bottom=0;" parent="XEnF2gIqBOLM984kFY1K-198" vertex="1">
                    <mxGeometry y="180" width="290" height="30" as="geometry"/>
                </mxCell>
                <mxCell id="XEnF2gIqBOLM984kFY1K-215" style="shape=partialRectangle;connectable=0;fillColor=none;top=0;left=0;bottom=0;right=0;editable=1;overflow=hidden;whiteSpace=wrap;html=1;" parent="XEnF2gIqBOLM984kFY1K-214" vertex="1">
                    <mxGeometry width="30" height="30" as="geometry">
                        <mxRectangle width="30" height="30" as="alternateBounds"/>
                    </mxGeometry>
                </mxCell>
                <mxCell id="XEnF2gIqBOLM984kFY1K-216" value="Problem_level: ENUM NOT NULL" style="shape=partialRectangle;connectable=0;fillColor=none;top=0;left=0;bottom=0;right=0;align=left;spacingLeft=6;overflow=hidden;whiteSpace=wrap;html=1;" parent="XEnF2gIqBOLM984kFY1K-214" vertex="1">
                    <mxGeometry x="30" width="260" height="30" as="geometry">
                        <mxRectangle width="260" height="30" as="alternateBounds"/>
                    </mxGeometry>
                </mxCell>
                <mxCell id="XEnF2gIqBOLM984kFY1K-217" style="shape=tableRow;horizontal=0;startSize=0;swimlaneHead=0;swimlaneBody=0;fillColor=none;collapsible=0;dropTarget=0;points=[[0,0.5],[1,0.5]];portConstraint=eastwest;top=0;left=0;right=0;bottom=0;" parent="XEnF2gIqBOLM984kFY1K-198" vertex="1">
                    <mxGeometry y="210" width="290" height="35" as="geometry"/>
                </mxCell>
                <mxCell id="XEnF2gIqBOLM984kFY1K-218" style="shape=partialRectangle;connectable=0;fillColor=none;top=0;left=0;bottom=0;right=0;editable=1;overflow=hidden;whiteSpace=wrap;html=1;" parent="XEnF2gIqBOLM984kFY1K-217" vertex="1">
                    <mxGeometry width="30" height="35" as="geometry">
                        <mxRectangle width="30" height="35" as="alternateBounds"/>
                    </mxGeometry>
                </mxCell>
                <mxCell id="XEnF2gIqBOLM984kFY1K-219" value="Automatic_detection:&amp;nbsp;boolean NOT NULL" style="shape=partialRectangle;connectable=0;fillColor=none;top=0;left=0;bottom=0;right=0;align=left;spacingLeft=6;overflow=hidden;whiteSpace=wrap;html=1;" parent="XEnF2gIqBOLM984kFY1K-217" vertex="1">
                    <mxGeometry x="30" width="260" height="35" as="geometry">
                        <mxRectangle width="260" height="35" as="alternateBounds"/>
                    </mxGeometry>
                </mxCell>
                <mxCell id="XEnF2gIqBOLM984kFY1K-220" style="shape=tableRow;horizontal=0;startSize=0;swimlaneHead=0;swimlaneBody=0;fillColor=none;collapsible=0;dropTarget=0;points=[[0,0.5],[1,0.5]];portConstraint=eastwest;top=0;left=0;right=0;bottom=0;" parent="XEnF2gIqBOLM984kFY1K-198" vertex="1">
                    <mxGeometry y="245" width="290" height="30" as="geometry"/>
                </mxCell>
                <mxCell id="XEnF2gIqBOLM984kFY1K-221" value="FK" style="shape=partialRectangle;connectable=0;fillColor=none;top=0;left=0;bottom=0;right=0;editable=1;overflow=hidden;whiteSpace=wrap;html=1;" parent="XEnF2gIqBOLM984kFY1K-220" vertex="1">
                    <mxGeometry width="30" height="30" as="geometry">
                        <mxRectangle width="30" height="30" as="alternateBounds"/>
                    </mxGeometry>
                </mxCell>
                <mxCell id="XEnF2gIqBOLM984kFY1K-222" value="Analyst_ID: UUID" style="shape=partialRectangle;connectable=0;fillColor=none;top=0;left=0;bottom=0;right=0;align=left;spacingLeft=6;overflow=hidden;whiteSpace=wrap;html=1;" parent="XEnF2gIqBOLM984kFY1K-220" vertex="1">
                    <mxGeometry x="30" width="260" height="30" as="geometry">
                        <mxRectangle width="260" height="30" as="alternateBounds"/>
                    </mxGeometry>
                </mxCell>
                <mxCell id="XEnF2gIqBOLM984kFY1K-223" style="edgeStyle=orthogonalEdgeStyle;rounded=0;orthogonalLoop=1;jettySize=auto;html=1;exitX=0;exitY=0.5;exitDx=0;exitDy=0;endArrow=ERzeroToMany;endFill=0;startArrow=ERzeroToOne;startFill=0;entryX=1;entryY=0.5;entryDx=0;entryDy=0;" parent="1" source="XEnF2gIqBOLM984kFY1K-174" target="XEnF2gIqBOLM984kFY1K-220" edge="1">
                    <mxGeometry relative="1" as="geometry">
                        <mxPoint x="390" y="1120" as="targetPoint"/>
                    </mxGeometry>
                </mxCell>
                <mxCell id="XEnF2gIqBOLM984kFY1K-224" value="Отчёты" style="shape=table;startSize=30;container=1;collapsible=1;childLayout=tableLayout;fixedRows=1;rowLines=0;fontStyle=1;align=center;resizeLast=1;html=1;" parent="1" vertex="1">
                    <mxGeometry x="150" y="620" width="400" height="180" as="geometry"/>
                </mxCell>
                <mxCell id="XEnF2gIqBOLM984kFY1K-225" value="" style="shape=tableRow;horizontal=0;startSize=0;swimlaneHead=0;swimlaneBody=0;fillColor=none;collapsible=0;dropTarget=0;points=[[0,0.5],[1,0.5]];portConstraint=eastwest;top=0;left=0;right=0;bottom=1;" parent="XEnF2gIqBOLM984kFY1K-224" vertex="1">
                    <mxGeometry y="30" width="400" height="30" as="geometry"/>
                </mxCell>
                <mxCell id="XEnF2gIqBOLM984kFY1K-226" value="PK" style="shape=partialRectangle;connectable=0;fillColor=none;top=0;left=0;bottom=0;right=0;fontStyle=1;overflow=hidden;whiteSpace=wrap;html=1;" parent="XEnF2gIqBOLM984kFY1K-225" vertex="1">
                    <mxGeometry width="30" height="30" as="geometry">
                        <mxRectangle width="30" height="30" as="alternateBounds"/>
                    </mxGeometry>
                </mxCell>
                <mxCell id="XEnF2gIqBOLM984kFY1K-227" value="REPORT_ID: UUID PK" style="shape=partialRectangle;connectable=0;fillColor=none;top=0;left=0;bottom=0;right=0;align=left;spacingLeft=6;fontStyle=5;overflow=hidden;whiteSpace=wrap;html=1;" parent="XEnF2gIqBOLM984kFY1K-225" vertex="1">
                    <mxGeometry x="30" width="370" height="30" as="geometry">
                        <mxRectangle width="370" height="30" as="alternateBounds"/>
                    </mxGeometry>
                </mxCell>
                <mxCell id="XEnF2gIqBOLM984kFY1K-228" value="" style="shape=tableRow;horizontal=0;startSize=0;swimlaneHead=0;swimlaneBody=0;fillColor=none;collapsible=0;dropTarget=0;points=[[0,0.5],[1,0.5]];portConstraint=eastwest;top=0;left=0;right=0;bottom=0;" parent="XEnF2gIqBOLM984kFY1K-224" vertex="1">
                    <mxGeometry y="60" width="400" height="30" as="geometry"/>
                </mxCell>
                <mxCell id="XEnF2gIqBOLM984kFY1K-229" value="FK" style="shape=partialRectangle;connectable=0;fillColor=none;top=0;left=0;bottom=0;right=0;editable=1;overflow=hidden;whiteSpace=wrap;html=1;" parent="XEnF2gIqBOLM984kFY1K-228" vertex="1">
                    <mxGeometry width="30" height="30" as="geometry">
                        <mxRectangle width="30" height="30" as="alternateBounds"/>
                    </mxGeometry>
                </mxCell>
                <mxCell id="XEnF2gIqBOLM984kFY1K-230" value="Task_ID: UUID&amp;nbsp;" style="shape=partialRectangle;connectable=0;fillColor=none;top=0;left=0;bottom=0;right=0;align=left;spacingLeft=6;overflow=hidden;whiteSpace=wrap;html=1;" parent="XEnF2gIqBOLM984kFY1K-228" vertex="1">
                    <mxGeometry x="30" width="370" height="30" as="geometry">
                        <mxRectangle width="370" height="30" as="alternateBounds"/>
                    </mxGeometry>
                </mxCell>
                <mxCell id="XEnF2gIqBOLM984kFY1K-231" value="" style="shape=tableRow;horizontal=0;startSize=0;swimlaneHead=0;swimlaneBody=0;fillColor=none;collapsible=0;dropTarget=0;points=[[0,0.5],[1,0.5]];portConstraint=eastwest;top=0;left=0;right=0;bottom=0;" parent="XEnF2gIqBOLM984kFY1K-224" vertex="1">
                    <mxGeometry y="90" width="400" height="30" as="geometry"/>
                </mxCell>
                <mxCell id="XEnF2gIqBOLM984kFY1K-232" value="" style="shape=partialRectangle;connectable=0;fillColor=none;top=0;left=0;bottom=0;right=0;editable=1;overflow=hidden;whiteSpace=wrap;html=1;" parent="XEnF2gIqBOLM984kFY1K-231" vertex="1">
                    <mxGeometry width="30" height="30" as="geometry">
                        <mxRectangle width="30" height="30" as="alternateBounds"/>
                    </mxGeometry>
                </mxCell>
                <mxCell id="XEnF2gIqBOLM984kFY1K-233" value="Start_of_work: timestamp [ without time zone ] NOT NULL" style="shape=partialRectangle;connectable=0;fillColor=none;top=0;left=0;bottom=0;right=0;align=left;spacingLeft=6;overflow=hidden;whiteSpace=wrap;html=1;" parent="XEnF2gIqBOLM984kFY1K-231" vertex="1">
                    <mxGeometry x="30" width="370" height="30" as="geometry">
                        <mxRectangle width="370" height="30" as="alternateBounds"/>
                    </mxGeometry>
                </mxCell>
                <mxCell id="XEnF2gIqBOLM984kFY1K-234" value="" style="shape=tableRow;horizontal=0;startSize=0;swimlaneHead=0;swimlaneBody=0;fillColor=none;collapsible=0;dropTarget=0;points=[[0,0.5],[1,0.5]];portConstraint=eastwest;top=0;left=0;right=0;bottom=0;" parent="XEnF2gIqBOLM984kFY1K-224" vertex="1">
                    <mxGeometry y="120" width="400" height="30" as="geometry"/>
                </mxCell>
                <mxCell id="XEnF2gIqBOLM984kFY1K-235" value="" style="shape=partialRectangle;connectable=0;fillColor=none;top=0;left=0;bottom=0;right=0;editable=1;overflow=hidden;whiteSpace=wrap;html=1;" parent="XEnF2gIqBOLM984kFY1K-234" vertex="1">
                    <mxGeometry width="30" height="30" as="geometry">
                        <mxRectangle width="30" height="30" as="alternateBounds"/>
                    </mxGeometry>
                </mxCell>
                <mxCell id="XEnF2gIqBOLM984kFY1K-236" value="Completion_of_work: timestamp [ without time zone ] NOT NULL" style="shape=partialRectangle;connectable=0;fillColor=none;top=0;left=0;bottom=0;right=0;align=left;spacingLeft=6;overflow=hidden;whiteSpace=wrap;html=1;" parent="XEnF2gIqBOLM984kFY1K-234" vertex="1">
                    <mxGeometry x="30" width="370" height="30" as="geometry">
                        <mxRectangle width="370" height="30" as="alternateBounds"/>
                    </mxGeometry>
                </mxCell>
                <mxCell id="XEnF2gIqBOLM984kFY1K-237" style="shape=tableRow;horizontal=0;startSize=0;swimlaneHead=0;swimlaneBody=0;fillColor=none;collapsible=0;dropTarget=0;points=[[0,0.5],[1,0.5]];portConstraint=eastwest;top=0;left=0;right=0;bottom=0;" parent="XEnF2gIqBOLM984kFY1K-224" vertex="1">
                    <mxGeometry y="150" width="400" height="30" as="geometry"/>
                </mxCell>
                <mxCell id="XEnF2gIqBOLM984kFY1K-238" style="shape=partialRectangle;connectable=0;fillColor=none;top=0;left=0;bottom=0;right=0;editable=1;overflow=hidden;whiteSpace=wrap;html=1;" parent="XEnF2gIqBOLM984kFY1K-237" vertex="1">
                    <mxGeometry width="30" height="30" as="geometry">
                        <mxRectangle width="30" height="30" as="alternateBounds"/>
                    </mxGeometry>
                </mxCell>
                <mxCell id="XEnF2gIqBOLM984kFY1K-239" value="report_generation: timestamp [ without time zone ] NOT NULL" style="shape=partialRectangle;connectable=0;fillColor=none;top=0;left=0;bottom=0;right=0;align=left;spacingLeft=6;overflow=hidden;whiteSpace=wrap;html=1;" parent="XEnF2gIqBOLM984kFY1K-237" vertex="1">
                    <mxGeometry x="30" width="370" height="30" as="geometry">
                        <mxRectangle width="370" height="30" as="alternateBounds"/>
                    </mxGeometry>
                </mxCell>
                <mxCell id="XEnF2gIqBOLM984kFY1K-240" value="Просмотр отчёта" style="shape=table;startSize=30;container=1;collapsible=1;childLayout=tableLayout;fixedRows=1;rowLines=0;fontStyle=1;align=center;resizeLast=1;html=1;" parent="1" vertex="1">
                    <mxGeometry x="660" y="585" width="390" height="160" as="geometry"/>
                </mxCell>
                <mxCell id="XEnF2gIqBOLM984kFY1K-241" value="" style="shape=tableRow;horizontal=0;startSize=0;swimlaneHead=0;swimlaneBody=0;fillColor=none;collapsible=0;dropTarget=0;points=[[0,0.5],[1,0.5]];portConstraint=eastwest;top=0;left=0;right=0;bottom=1;" parent="XEnF2gIqBOLM984kFY1K-240" vertex="1">
                    <mxGeometry y="30" width="390" height="30" as="geometry"/>
                </mxCell>
                <mxCell id="XEnF2gIqBOLM984kFY1K-242" value="PK" style="shape=partialRectangle;connectable=0;fillColor=none;top=0;left=0;bottom=0;right=0;fontStyle=1;overflow=hidden;whiteSpace=wrap;html=1;" parent="XEnF2gIqBOLM984kFY1K-241" vertex="1">
                    <mxGeometry width="30" height="30" as="geometry">
                        <mxRectangle width="30" height="30" as="alternateBounds"/>
                    </mxGeometry>
                </mxCell>
                <mxCell id="XEnF2gIqBOLM984kFY1K-243" value="View_ID: UUID PK" style="shape=partialRectangle;connectable=0;fillColor=none;top=0;left=0;bottom=0;right=0;align=left;spacingLeft=6;fontStyle=5;overflow=hidden;whiteSpace=wrap;html=1;" parent="XEnF2gIqBOLM984kFY1K-241" vertex="1">
                    <mxGeometry x="30" width="360" height="30" as="geometry">
                        <mxRectangle width="360" height="30" as="alternateBounds"/>
                    </mxGeometry>
                </mxCell>
                <mxCell id="XEnF2gIqBOLM984kFY1K-244" value="" style="shape=tableRow;horizontal=0;startSize=0;swimlaneHead=0;swimlaneBody=0;fillColor=none;collapsible=0;dropTarget=0;points=[[0,0.5],[1,0.5]];portConstraint=eastwest;top=0;left=0;right=0;bottom=0;" parent="XEnF2gIqBOLM984kFY1K-240" vertex="1">
                    <mxGeometry y="60" width="390" height="40" as="geometry"/>
                </mxCell>
                <mxCell id="XEnF2gIqBOLM984kFY1K-245" value="FK" style="shape=partialRectangle;connectable=0;fillColor=none;top=0;left=0;bottom=0;right=0;editable=1;overflow=hidden;whiteSpace=wrap;html=1;" parent="XEnF2gIqBOLM984kFY1K-244" vertex="1">
                    <mxGeometry width="30" height="40" as="geometry">
                        <mxRectangle width="30" height="40" as="alternateBounds"/>
                    </mxGeometry>
                </mxCell>
                <mxCell id="XEnF2gIqBOLM984kFY1K-246" value="Report_ID: UUID NOT NULL" style="shape=partialRectangle;connectable=0;fillColor=none;top=0;left=0;bottom=0;right=0;align=left;spacingLeft=6;overflow=hidden;whiteSpace=wrap;html=1;" parent="XEnF2gIqBOLM984kFY1K-244" vertex="1">
                    <mxGeometry x="30" width="360" height="40" as="geometry">
                        <mxRectangle width="360" height="40" as="alternateBounds"/>
                    </mxGeometry>
                </mxCell>
                <mxCell id="XEnF2gIqBOLM984kFY1K-247" value="" style="shape=tableRow;horizontal=0;startSize=0;swimlaneHead=0;swimlaneBody=0;fillColor=none;collapsible=0;dropTarget=0;points=[[0,0.5],[1,0.5]];portConstraint=eastwest;top=0;left=0;right=0;bottom=0;" parent="XEnF2gIqBOLM984kFY1K-240" vertex="1">
                    <mxGeometry y="100" width="390" height="30" as="geometry"/>
                </mxCell>
                <mxCell id="XEnF2gIqBOLM984kFY1K-248" value="FK" style="shape=partialRectangle;connectable=0;fillColor=none;top=0;left=0;bottom=0;right=0;editable=1;overflow=hidden;whiteSpace=wrap;html=1;" parent="XEnF2gIqBOLM984kFY1K-247" vertex="1">
                    <mxGeometry width="30" height="30" as="geometry">
                        <mxRectangle width="30" height="30" as="alternateBounds"/>
                    </mxGeometry>
                </mxCell>
                <mxCell id="XEnF2gIqBOLM984kFY1K-249" value="Analyst_ID: UUID&amp;nbsp; NOT NULL" style="shape=partialRectangle;connectable=0;fillColor=none;top=0;left=0;bottom=0;right=0;align=left;spacingLeft=6;overflow=hidden;whiteSpace=wrap;html=1;" parent="XEnF2gIqBOLM984kFY1K-247" vertex="1">
                    <mxGeometry x="30" width="360" height="30" as="geometry">
                        <mxRectangle width="360" height="30" as="alternateBounds"/>
                    </mxGeometry>
                </mxCell>
                <mxCell id="XEnF2gIqBOLM984kFY1K-250" value="" style="shape=tableRow;horizontal=0;startSize=0;swimlaneHead=0;swimlaneBody=0;fillColor=none;collapsible=0;dropTarget=0;points=[[0,0.5],[1,0.5]];portConstraint=eastwest;top=0;left=0;right=0;bottom=0;" parent="XEnF2gIqBOLM984kFY1K-240" vertex="1">
                    <mxGeometry y="130" width="390" height="30" as="geometry"/>
                </mxCell>
                <mxCell id="XEnF2gIqBOLM984kFY1K-251" value="" style="shape=partialRectangle;connectable=0;fillColor=none;top=0;left=0;bottom=0;right=0;editable=1;overflow=hidden;whiteSpace=wrap;html=1;" parent="XEnF2gIqBOLM984kFY1K-250" vertex="1">
                    <mxGeometry width="30" height="30" as="geometry">
                        <mxRectangle width="30" height="30" as="alternateBounds"/>
                    </mxGeometry>
                </mxCell>
                <mxCell id="XEnF2gIqBOLM984kFY1K-252" value="Date_time_view:&amp;nbsp;&amp;nbsp;timestamp [ without time zone ] NOT NULL" style="shape=partialRectangle;connectable=0;fillColor=none;top=0;left=0;bottom=0;right=0;align=left;spacingLeft=6;overflow=hidden;whiteSpace=wrap;html=1;" parent="XEnF2gIqBOLM984kFY1K-250" vertex="1">
                    <mxGeometry x="30" width="360" height="30" as="geometry">
                        <mxRectangle width="360" height="30" as="alternateBounds"/>
                    </mxGeometry>
                </mxCell>
                <mxCell id="XEnF2gIqBOLM984kFY1K-253" style="edgeStyle=orthogonalEdgeStyle;rounded=0;orthogonalLoop=1;jettySize=auto;html=1;entryX=1;entryY=0.5;entryDx=0;entryDy=0;endArrow=ERoneToMany;endFill=0;startArrow=ERmandOne;startFill=0;" parent="1" source="XEnF2gIqBOLM984kFY1K-174" target="XEnF2gIqBOLM984kFY1K-247" edge="1">
                    <mxGeometry relative="1" as="geometry"/>
                </mxCell>
                <mxCell id="XEnF2gIqBOLM984kFY1K-254" style="edgeStyle=orthogonalEdgeStyle;rounded=0;orthogonalLoop=1;jettySize=auto;html=1;entryX=0;entryY=0.5;entryDx=0;entryDy=0;endArrow=ERoneToMany;endFill=0;startArrow=ERmandOne;startFill=0;" parent="1" source="XEnF2gIqBOLM984kFY1K-225" target="XEnF2gIqBOLM984kFY1K-244" edge="1">
                    <mxGeometry relative="1" as="geometry"/>
                </mxCell>
                <mxCell id="XEnF2gIqBOLM984kFY1K-255" value="Городская служба" style="shape=table;startSize=30;container=1;collapsible=1;childLayout=tableLayout;fixedRows=1;rowLines=0;fontStyle=1;align=center;resizeLast=1;html=1;" parent="1" vertex="1">
                    <mxGeometry x="670" y="80" width="290" height="245" as="geometry">
                        <mxRectangle x="640" y="1110" width="100" height="30" as="alternateBounds"/>
                    </mxGeometry>
                </mxCell>
                <mxCell id="XEnF2gIqBOLM984kFY1K-256" value="" style="shape=tableRow;horizontal=0;startSize=0;swimlaneHead=0;swimlaneBody=0;fillColor=none;collapsible=0;dropTarget=0;points=[[0,0.5],[1,0.5]];portConstraint=eastwest;top=0;left=0;right=0;bottom=1;" parent="XEnF2gIqBOLM984kFY1K-255" vertex="1">
                    <mxGeometry y="30" width="290" height="20" as="geometry"/>
                </mxCell>
                <mxCell id="XEnF2gIqBOLM984kFY1K-257" value="PK" style="shape=partialRectangle;connectable=0;fillColor=none;top=0;left=0;bottom=0;right=0;fontStyle=1;overflow=hidden;whiteSpace=wrap;html=1;" parent="XEnF2gIqBOLM984kFY1K-256" vertex="1">
                    <mxGeometry width="30.000000000000114" height="20" as="geometry">
                        <mxRectangle width="30.000000000000114" height="20" as="alternateBounds"/>
                    </mxGeometry>
                </mxCell>
                <mxCell id="XEnF2gIqBOLM984kFY1K-258" value="Dispatcher_ID: UUID PK" style="shape=partialRectangle;connectable=0;fillColor=none;top=0;left=0;bottom=0;right=0;align=left;spacingLeft=6;fontStyle=5;overflow=hidden;whiteSpace=wrap;html=1;" parent="XEnF2gIqBOLM984kFY1K-256" vertex="1">
                    <mxGeometry x="30.000000000000114" width="259.9999999999999" height="20" as="geometry">
                        <mxRectangle width="259.9999999999999" height="20" as="alternateBounds"/>
                    </mxGeometry>
                </mxCell>
                <mxCell id="XEnF2gIqBOLM984kFY1K-259" value="" style="shape=tableRow;horizontal=0;startSize=0;swimlaneHead=0;swimlaneBody=0;fillColor=none;collapsible=0;dropTarget=0;points=[[0,0.5],[1,0.5]];portConstraint=eastwest;top=0;left=0;right=0;bottom=0;" parent="XEnF2gIqBOLM984kFY1K-255" vertex="1">
                    <mxGeometry y="50" width="290" height="25" as="geometry"/>
                </mxCell>
                <mxCell id="XEnF2gIqBOLM984kFY1K-260" value="" style="shape=partialRectangle;connectable=0;fillColor=none;top=0;left=0;bottom=0;right=0;editable=1;overflow=hidden;whiteSpace=wrap;html=1;" parent="XEnF2gIqBOLM984kFY1K-259" vertex="1">
                    <mxGeometry width="30.000000000000114" height="25" as="geometry">
                        <mxRectangle width="30.000000000000114" height="25" as="alternateBounds"/>
                    </mxGeometry>
                </mxCell>
                <mxCell id="XEnF2gIqBOLM984kFY1K-261" value="Last_name: VARCHAR (20) NOT NULL" style="shape=partialRectangle;connectable=0;fillColor=none;top=0;left=0;bottom=0;right=0;align=left;spacingLeft=6;overflow=hidden;whiteSpace=wrap;html=1;" parent="XEnF2gIqBOLM984kFY1K-259" vertex="1">
                    <mxGeometry x="30.000000000000114" width="259.9999999999999" height="25" as="geometry">
                        <mxRectangle width="259.9999999999999" height="25" as="alternateBounds"/>
                    </mxGeometry>
                </mxCell>
                <mxCell id="XEnF2gIqBOLM984kFY1K-262" style="shape=tableRow;horizontal=0;startSize=0;swimlaneHead=0;swimlaneBody=0;fillColor=none;collapsible=0;dropTarget=0;points=[[0,0.5],[1,0.5]];portConstraint=eastwest;top=0;left=0;right=0;bottom=0;" parent="XEnF2gIqBOLM984kFY1K-255" vertex="1">
                    <mxGeometry y="75" width="290" height="25" as="geometry"/>
                </mxCell>
                <mxCell id="XEnF2gIqBOLM984kFY1K-263" style="shape=partialRectangle;connectable=0;fillColor=none;top=0;left=0;bottom=0;right=0;editable=1;overflow=hidden;whiteSpace=wrap;html=1;" parent="XEnF2gIqBOLM984kFY1K-262" vertex="1">
                    <mxGeometry width="30.000000000000114" height="25" as="geometry">
                        <mxRectangle width="30.000000000000114" height="25" as="alternateBounds"/>
                    </mxGeometry>
                </mxCell>
                <mxCell id="XEnF2gIqBOLM984kFY1K-264" value="First_name: VARCHAR (223) NOT NULL" style="shape=partialRectangle;connectable=0;fillColor=none;top=0;left=0;bottom=0;right=0;align=left;spacingLeft=6;overflow=hidden;whiteSpace=wrap;html=1;" parent="XEnF2gIqBOLM984kFY1K-262" vertex="1">
                    <mxGeometry x="30.000000000000114" width="259.9999999999999" height="25" as="geometry">
                        <mxRectangle width="259.9999999999999" height="25" as="alternateBounds"/>
                    </mxGeometry>
                </mxCell>
                <mxCell id="XEnF2gIqBOLM984kFY1K-265" style="shape=tableRow;horizontal=0;startSize=0;swimlaneHead=0;swimlaneBody=0;fillColor=none;collapsible=0;dropTarget=0;points=[[0,0.5],[1,0.5]];portConstraint=eastwest;top=0;left=0;right=0;bottom=0;" parent="XEnF2gIqBOLM984kFY1K-255" vertex="1">
                    <mxGeometry y="100" width="290" height="25" as="geometry"/>
                </mxCell>
                <mxCell id="XEnF2gIqBOLM984kFY1K-266" style="shape=partialRectangle;connectable=0;fillColor=none;top=0;left=0;bottom=0;right=0;editable=1;overflow=hidden;whiteSpace=wrap;html=1;" parent="XEnF2gIqBOLM984kFY1K-265" vertex="1">
                    <mxGeometry width="30.000000000000114" height="25" as="geometry">
                        <mxRectangle width="30.000000000000114" height="25" as="alternateBounds"/>
                    </mxGeometry>
                </mxCell>
                <mxCell id="XEnF2gIqBOLM984kFY1K-267" value="Patronymic: VARCHAR&amp;nbsp;(223)" style="shape=partialRectangle;connectable=0;fillColor=none;top=0;left=0;bottom=0;right=0;align=left;spacingLeft=6;overflow=hidden;whiteSpace=wrap;html=1;" parent="XEnF2gIqBOLM984kFY1K-265" vertex="1">
                    <mxGeometry x="30.000000000000114" width="259.9999999999999" height="25" as="geometry">
                        <mxRectangle width="259.9999999999999" height="25" as="alternateBounds"/>
                    </mxGeometry>
                </mxCell>
                <mxCell id="XEnF2gIqBOLM984kFY1K-268" style="shape=tableRow;horizontal=0;startSize=0;swimlaneHead=0;swimlaneBody=0;fillColor=none;collapsible=0;dropTarget=0;points=[[0,0.5],[1,0.5]];portConstraint=eastwest;top=0;left=0;right=0;bottom=0;" parent="XEnF2gIqBOLM984kFY1K-255" vertex="1">
                    <mxGeometry y="125" width="290" height="30" as="geometry"/>
                </mxCell>
                <mxCell id="XEnF2gIqBOLM984kFY1K-269" value="" style="shape=partialRectangle;connectable=0;fillColor=none;top=0;left=0;bottom=0;right=0;editable=1;overflow=hidden;whiteSpace=wrap;html=1;" parent="XEnF2gIqBOLM984kFY1K-268" vertex="1">
                    <mxGeometry width="30.000000000000114" height="30" as="geometry">
                        <mxRectangle width="30.000000000000114" height="30" as="alternateBounds"/>
                    </mxGeometry>
                </mxCell>
                <mxCell id="XEnF2gIqBOLM984kFY1K-270" value="Date_of_birth: DATE NOT NULL" style="shape=partialRectangle;connectable=0;fillColor=none;top=0;left=0;bottom=0;right=0;align=left;spacingLeft=6;overflow=hidden;whiteSpace=wrap;html=1;" parent="XEnF2gIqBOLM984kFY1K-268" vertex="1">
                    <mxGeometry x="30.000000000000114" width="259.9999999999999" height="30" as="geometry">
                        <mxRectangle width="259.9999999999999" height="30" as="alternateBounds"/>
                    </mxGeometry>
                </mxCell>
                <mxCell id="XEnF2gIqBOLM984kFY1K-271" style="shape=tableRow;horizontal=0;startSize=0;swimlaneHead=0;swimlaneBody=0;fillColor=none;collapsible=0;dropTarget=0;points=[[0,0.5],[1,0.5]];portConstraint=eastwest;top=0;left=0;right=0;bottom=0;" parent="XEnF2gIqBOLM984kFY1K-255" vertex="1">
                    <mxGeometry y="155" width="290" height="30" as="geometry"/>
                </mxCell>
                <mxCell id="XEnF2gIqBOLM984kFY1K-272" value="" style="shape=partialRectangle;connectable=0;fillColor=none;top=0;left=0;bottom=0;right=0;editable=1;overflow=hidden;whiteSpace=wrap;html=1;" parent="XEnF2gIqBOLM984kFY1K-271" vertex="1">
                    <mxGeometry width="30.000000000000114" height="30" as="geometry">
                        <mxRectangle width="30.000000000000114" height="30" as="alternateBounds"/>
                    </mxGeometry>
                </mxCell>
                <mxCell id="XEnF2gIqBOLM984kFY1K-273" value="Gender: ENUM NOT NULL" style="shape=partialRectangle;connectable=0;fillColor=none;top=0;left=0;bottom=0;right=0;align=left;spacingLeft=6;overflow=hidden;whiteSpace=wrap;html=1;" parent="XEnF2gIqBOLM984kFY1K-271" vertex="1">
                    <mxGeometry x="30.000000000000114" width="259.9999999999999" height="30" as="geometry">
                        <mxRectangle width="259.9999999999999" height="30" as="alternateBounds"/>
                    </mxGeometry>
                </mxCell>
                <mxCell id="XEnF2gIqBOLM984kFY1K-274" style="shape=tableRow;horizontal=0;startSize=0;swimlaneHead=0;swimlaneBody=0;fillColor=none;collapsible=0;dropTarget=0;points=[[0,0.5],[1,0.5]];portConstraint=eastwest;top=0;left=0;right=0;bottom=0;" parent="XEnF2gIqBOLM984kFY1K-255" vertex="1">
                    <mxGeometry y="185" width="290" height="30" as="geometry"/>
                </mxCell>
                <mxCell id="XEnF2gIqBOLM984kFY1K-275" style="shape=partialRectangle;connectable=0;fillColor=none;top=0;left=0;bottom=0;right=0;editable=1;overflow=hidden;whiteSpace=wrap;html=1;" parent="XEnF2gIqBOLM984kFY1K-274" vertex="1">
                    <mxGeometry width="30.000000000000114" height="30" as="geometry">
                        <mxRectangle width="30.000000000000114" height="30" as="alternateBounds"/>
                    </mxGeometry>
                </mxCell>
                <mxCell id="XEnF2gIqBOLM984kFY1K-276" value="E-mail: VARCHAR (255) UNIQUE&amp;nbsp;NOT NULL" style="shape=partialRectangle;connectable=0;fillColor=none;top=0;left=0;bottom=0;right=0;align=left;spacingLeft=6;overflow=hidden;whiteSpace=wrap;html=1;" parent="XEnF2gIqBOLM984kFY1K-274" vertex="1">
                    <mxGeometry x="30.000000000000114" width="259.9999999999999" height="30" as="geometry">
                        <mxRectangle width="259.9999999999999" height="30" as="alternateBounds"/>
                    </mxGeometry>
                </mxCell>
                <mxCell id="XEnF2gIqBOLM984kFY1K-277" style="shape=tableRow;horizontal=0;startSize=0;swimlaneHead=0;swimlaneBody=0;fillColor=none;collapsible=0;dropTarget=0;points=[[0,0.5],[1,0.5]];portConstraint=eastwest;top=0;left=0;right=0;bottom=0;" parent="XEnF2gIqBOLM984kFY1K-255" vertex="1">
                    <mxGeometry y="215" width="290" height="30" as="geometry"/>
                </mxCell>
                <mxCell id="XEnF2gIqBOLM984kFY1K-278" style="shape=partialRectangle;connectable=0;fillColor=none;top=0;left=0;bottom=0;right=0;editable=1;overflow=hidden;whiteSpace=wrap;html=1;" parent="XEnF2gIqBOLM984kFY1K-277" vertex="1">
                    <mxGeometry width="30.000000000000114" height="30" as="geometry">
                        <mxRectangle width="30.000000000000114" height="30" as="alternateBounds"/>
                    </mxGeometry>
                </mxCell>
                <mxCell id="XEnF2gIqBOLM984kFY1K-279" value="Phone: VARCHAR (15) UNIQUE&amp;nbsp;NOT NULL" style="shape=partialRectangle;connectable=0;fillColor=none;top=0;left=0;bottom=0;right=0;align=left;spacingLeft=6;overflow=hidden;whiteSpace=wrap;html=1;" parent="XEnF2gIqBOLM984kFY1K-277" vertex="1">
                    <mxGeometry x="30.000000000000114" width="259.9999999999999" height="30" as="geometry">
                        <mxRectangle width="259.9999999999999" height="30" as="alternateBounds"/>
                    </mxGeometry>
                </mxCell>
                <mxCell id="XEnF2gIqBOLM984kFY1K-280" value="Заявки" style="shape=table;startSize=30;container=1;collapsible=1;childLayout=tableLayout;fixedRows=1;rowLines=0;fontStyle=1;align=center;resizeLast=1;html=1;" parent="1" vertex="1">
                    <mxGeometry x="-270" y="410" width="340" height="240" as="geometry"/>
                </mxCell>
                <mxCell id="XEnF2gIqBOLM984kFY1K-281" value="" style="shape=tableRow;horizontal=0;startSize=0;swimlaneHead=0;swimlaneBody=0;fillColor=none;collapsible=0;dropTarget=0;points=[[0,0.5],[1,0.5]];portConstraint=eastwest;top=0;left=0;right=0;bottom=1;" parent="XEnF2gIqBOLM984kFY1K-280" vertex="1">
                    <mxGeometry y="30" width="340" height="30" as="geometry"/>
                </mxCell>
                <mxCell id="XEnF2gIqBOLM984kFY1K-282" value="PK" style="shape=partialRectangle;connectable=0;fillColor=none;top=0;left=0;bottom=0;right=0;fontStyle=1;overflow=hidden;whiteSpace=wrap;html=1;" parent="XEnF2gIqBOLM984kFY1K-281" vertex="1">
                    <mxGeometry width="30" height="30" as="geometry">
                        <mxRectangle width="30" height="30" as="alternateBounds"/>
                    </mxGeometry>
                </mxCell>
                <mxCell id="XEnF2gIqBOLM984kFY1K-283" value="TASK_ID: UUID PK" style="shape=partialRectangle;connectable=0;fillColor=none;top=0;left=0;bottom=0;right=0;align=left;spacingLeft=6;fontStyle=5;overflow=hidden;whiteSpace=wrap;html=1;" parent="XEnF2gIqBOLM984kFY1K-281" vertex="1">
                    <mxGeometry x="30" width="310" height="30" as="geometry">
                        <mxRectangle width="310" height="30" as="alternateBounds"/>
                    </mxGeometry>
                </mxCell>
                <mxCell id="XEnF2gIqBOLM984kFY1K-284" value="" style="shape=tableRow;horizontal=0;startSize=0;swimlaneHead=0;swimlaneBody=0;fillColor=none;collapsible=0;dropTarget=0;points=[[0,0.5],[1,0.5]];portConstraint=eastwest;top=0;left=0;right=0;bottom=0;" parent="XEnF2gIqBOLM984kFY1K-280" vertex="1">
                    <mxGeometry y="60" width="340" height="30" as="geometry"/>
                </mxCell>
                <mxCell id="XEnF2gIqBOLM984kFY1K-285" value="FK" style="shape=partialRectangle;connectable=0;fillColor=none;top=0;left=0;bottom=0;right=0;editable=1;overflow=hidden;whiteSpace=wrap;html=1;" parent="XEnF2gIqBOLM984kFY1K-284" vertex="1">
                    <mxGeometry width="30" height="30" as="geometry">
                        <mxRectangle width="30" height="30" as="alternateBounds"/>
                    </mxGeometry>
                </mxCell>
                <mxCell id="XEnF2gIqBOLM984kFY1K-286" value="Problem_ID: UUID NOT NULL" style="shape=partialRectangle;connectable=0;fillColor=none;top=0;left=0;bottom=0;right=0;align=left;spacingLeft=6;overflow=hidden;whiteSpace=wrap;html=1;" parent="XEnF2gIqBOLM984kFY1K-284" vertex="1">
                    <mxGeometry x="30" width="310" height="30" as="geometry">
                        <mxRectangle width="310" height="30" as="alternateBounds"/>
                    </mxGeometry>
                </mxCell>
                <mxCell id="XEnF2gIqBOLM984kFY1K-287" value="" style="shape=tableRow;horizontal=0;startSize=0;swimlaneHead=0;swimlaneBody=0;fillColor=none;collapsible=0;dropTarget=0;points=[[0,0.5],[1,0.5]];portConstraint=eastwest;top=0;left=0;right=0;bottom=0;" parent="XEnF2gIqBOLM984kFY1K-280" vertex="1">
                    <mxGeometry y="90" width="340" height="30" as="geometry"/>
                </mxCell>
                <mxCell id="XEnF2gIqBOLM984kFY1K-288" value="" style="shape=partialRectangle;connectable=0;fillColor=none;top=0;left=0;bottom=0;right=0;editable=1;overflow=hidden;whiteSpace=wrap;html=1;" parent="XEnF2gIqBOLM984kFY1K-287" vertex="1">
                    <mxGeometry width="30" height="30" as="geometry">
                        <mxRectangle width="30" height="30" as="alternateBounds"/>
                    </mxGeometry>
                </mxCell>
                <mxCell id="XEnF2gIqBOLM984kFY1K-289" value="Getting: timestamp [ without time zone ] NOT NULL" style="shape=partialRectangle;connectable=0;fillColor=none;top=0;left=0;bottom=0;right=0;align=left;spacingLeft=6;overflow=hidden;whiteSpace=wrap;html=1;" parent="XEnF2gIqBOLM984kFY1K-287" vertex="1">
                    <mxGeometry x="30" width="310" height="30" as="geometry">
                        <mxRectangle width="310" height="30" as="alternateBounds"/>
                    </mxGeometry>
                </mxCell>
                <mxCell id="XEnF2gIqBOLM984kFY1K-290" style="shape=tableRow;horizontal=0;startSize=0;swimlaneHead=0;swimlaneBody=0;fillColor=none;collapsible=0;dropTarget=0;points=[[0,0.5],[1,0.5]];portConstraint=eastwest;top=0;left=0;right=0;bottom=0;" parent="XEnF2gIqBOLM984kFY1K-280" vertex="1">
                    <mxGeometry y="120" width="340" height="30" as="geometry"/>
                </mxCell>
                <mxCell id="XEnF2gIqBOLM984kFY1K-291" value="FK" style="shape=partialRectangle;connectable=0;fillColor=none;top=0;left=0;bottom=0;right=0;editable=1;overflow=hidden;whiteSpace=wrap;html=1;" parent="XEnF2gIqBOLM984kFY1K-290" vertex="1">
                    <mxGeometry width="30" height="30" as="geometry">
                        <mxRectangle width="30" height="30" as="alternateBounds"/>
                    </mxGeometry>
                </mxCell>
                <mxCell id="XEnF2gIqBOLM984kFY1K-292" value="Executor_ID: UUID NOT NULL" style="shape=partialRectangle;connectable=0;fillColor=none;top=0;left=0;bottom=0;right=0;align=left;spacingLeft=6;overflow=hidden;whiteSpace=wrap;html=1;" parent="XEnF2gIqBOLM984kFY1K-290" vertex="1">
                    <mxGeometry x="30" width="310" height="30" as="geometry">
                        <mxRectangle width="310" height="30" as="alternateBounds"/>
                    </mxGeometry>
                </mxCell>
                <mxCell id="XEnF2gIqBOLM984kFY1K-293" style="shape=tableRow;horizontal=0;startSize=0;swimlaneHead=0;swimlaneBody=0;fillColor=none;collapsible=0;dropTarget=0;points=[[0,0.5],[1,0.5]];portConstraint=eastwest;top=0;left=0;right=0;bottom=0;" parent="XEnF2gIqBOLM984kFY1K-280" vertex="1">
                    <mxGeometry y="150" width="340" height="30" as="geometry"/>
                </mxCell>
                <mxCell id="XEnF2gIqBOLM984kFY1K-294" style="shape=partialRectangle;connectable=0;fillColor=none;top=0;left=0;bottom=0;right=0;editable=1;overflow=hidden;whiteSpace=wrap;html=1;" parent="XEnF2gIqBOLM984kFY1K-293" vertex="1">
                    <mxGeometry width="30" height="30" as="geometry">
                        <mxRectangle width="30" height="30" as="alternateBounds"/>
                    </mxGeometry>
                </mxCell>
                <mxCell id="XEnF2gIqBOLM984kFY1K-295" value="Status: ENUM NOT NULL" style="shape=partialRectangle;connectable=0;fillColor=none;top=0;left=0;bottom=0;right=0;align=left;spacingLeft=6;overflow=hidden;whiteSpace=wrap;html=1;" parent="XEnF2gIqBOLM984kFY1K-293" vertex="1">
                    <mxGeometry x="30" width="310" height="30" as="geometry">
                        <mxRectangle width="310" height="30" as="alternateBounds"/>
                    </mxGeometry>
                </mxCell>
                <mxCell id="XEnF2gIqBOLM984kFY1K-296" style="shape=tableRow;horizontal=0;startSize=0;swimlaneHead=0;swimlaneBody=0;fillColor=none;collapsible=0;dropTarget=0;points=[[0,0.5],[1,0.5]];portConstraint=eastwest;top=0;left=0;right=0;bottom=0;" parent="XEnF2gIqBOLM984kFY1K-280" vertex="1">
                    <mxGeometry y="180" width="340" height="30" as="geometry"/>
                </mxCell>
                <mxCell id="XEnF2gIqBOLM984kFY1K-297" style="shape=partialRectangle;connectable=0;fillColor=none;top=0;left=0;bottom=0;right=0;editable=1;overflow=hidden;whiteSpace=wrap;html=1;" parent="XEnF2gIqBOLM984kFY1K-296" vertex="1">
                    <mxGeometry width="30" height="30" as="geometry">
                        <mxRectangle width="30" height="30" as="alternateBounds"/>
                    </mxGeometry>
                </mxCell>
                <mxCell id="XEnF2gIqBOLM984kFY1K-298" value="Deadline: timestamp [ without time zone ] NOT NULL" style="shape=partialRectangle;connectable=0;fillColor=none;top=0;left=0;bottom=0;right=0;align=left;spacingLeft=6;overflow=hidden;whiteSpace=wrap;html=1;" parent="XEnF2gIqBOLM984kFY1K-296" vertex="1">
                    <mxGeometry x="30" width="310" height="30" as="geometry">
                        <mxRectangle width="310" height="30" as="alternateBounds"/>
                    </mxGeometry>
                </mxCell>
                <mxCell id="XEnF2gIqBOLM984kFY1K-299" style="shape=tableRow;horizontal=0;startSize=0;swimlaneHead=0;swimlaneBody=0;fillColor=none;collapsible=0;dropTarget=0;points=[[0,0.5],[1,0.5]];portConstraint=eastwest;top=0;left=0;right=0;bottom=0;" parent="XEnF2gIqBOLM984kFY1K-280" vertex="1">
                    <mxGeometry y="210" width="340" height="30" as="geometry"/>
                </mxCell>
                <mxCell id="XEnF2gIqBOLM984kFY1K-300" value="FK" style="shape=partialRectangle;connectable=0;fillColor=none;top=0;left=0;bottom=0;right=0;editable=1;overflow=hidden;whiteSpace=wrap;html=1;" parent="XEnF2gIqBOLM984kFY1K-299" vertex="1">
                    <mxGeometry width="30" height="30" as="geometry">
                        <mxRectangle width="30" height="30" as="alternateBounds"/>
                    </mxGeometry>
                </mxCell>
                <mxCell id="XEnF2gIqBOLM984kFY1K-301" value="Dispatcher_ID: UUID NOT NULL" style="shape=partialRectangle;connectable=0;fillColor=none;top=0;left=0;bottom=0;right=0;align=left;spacingLeft=6;overflow=hidden;whiteSpace=wrap;html=1;" parent="XEnF2gIqBOLM984kFY1K-299" vertex="1">
                    <mxGeometry x="30" width="310" height="30" as="geometry">
                        <mxRectangle width="310" height="30" as="alternateBounds"/>
                    </mxGeometry>
                </mxCell>
                <mxCell id="XEnF2gIqBOLM984kFY1K-302" value="Исполнитель" style="shape=table;startSize=30;container=1;collapsible=1;childLayout=tableLayout;fixedRows=1;rowLines=0;fontStyle=1;align=center;resizeLast=1;html=1;" parent="1" vertex="1">
                    <mxGeometry x="390" y="160" width="260" height="300" as="geometry"/>
                </mxCell>
                <mxCell id="XEnF2gIqBOLM984kFY1K-303" value="" style="shape=tableRow;horizontal=0;startSize=0;swimlaneHead=0;swimlaneBody=0;fillColor=none;collapsible=0;dropTarget=0;points=[[0,0.5],[1,0.5]];portConstraint=eastwest;top=0;left=0;right=0;bottom=1;" parent="XEnF2gIqBOLM984kFY1K-302" vertex="1">
                    <mxGeometry y="30" width="260" height="30" as="geometry"/>
                </mxCell>
                <mxCell id="XEnF2gIqBOLM984kFY1K-304" value="PK" style="shape=partialRectangle;connectable=0;fillColor=none;top=0;left=0;bottom=0;right=0;fontStyle=1;overflow=hidden;whiteSpace=wrap;html=1;" parent="XEnF2gIqBOLM984kFY1K-303" vertex="1">
                    <mxGeometry width="30" height="30" as="geometry">
                        <mxRectangle width="30" height="30" as="alternateBounds"/>
                    </mxGeometry>
                </mxCell>
                <mxCell id="XEnF2gIqBOLM984kFY1K-305" value="Executor_ID: UUID PK" style="shape=partialRectangle;connectable=0;fillColor=none;top=0;left=0;bottom=0;right=0;align=left;spacingLeft=6;fontStyle=5;overflow=hidden;whiteSpace=wrap;html=1;" parent="XEnF2gIqBOLM984kFY1K-303" vertex="1">
                    <mxGeometry x="30" width="230" height="30" as="geometry">
                        <mxRectangle width="230" height="30" as="alternateBounds"/>
                    </mxGeometry>
                </mxCell>
                <mxCell id="XEnF2gIqBOLM984kFY1K-306" value="" style="shape=tableRow;horizontal=0;startSize=0;swimlaneHead=0;swimlaneBody=0;fillColor=none;collapsible=0;dropTarget=0;points=[[0,0.5],[1,0.5]];portConstraint=eastwest;top=0;left=0;right=0;bottom=0;" parent="XEnF2gIqBOLM984kFY1K-302" vertex="1">
                    <mxGeometry y="60" width="260" height="30" as="geometry"/>
                </mxCell>
                <mxCell id="XEnF2gIqBOLM984kFY1K-307" value="" style="shape=partialRectangle;connectable=0;fillColor=none;top=0;left=0;bottom=0;right=0;editable=1;overflow=hidden;whiteSpace=wrap;html=1;" parent="XEnF2gIqBOLM984kFY1K-306" vertex="1">
                    <mxGeometry width="30" height="30" as="geometry">
                        <mxRectangle width="30" height="30" as="alternateBounds"/>
                    </mxGeometry>
                </mxCell>
                <mxCell id="XEnF2gIqBOLM984kFY1K-308" value="Last_name: VARCHAR (20) NOT NULL" style="shape=partialRectangle;connectable=0;fillColor=none;top=0;left=0;bottom=0;right=0;align=left;spacingLeft=6;overflow=hidden;whiteSpace=wrap;html=1;" parent="XEnF2gIqBOLM984kFY1K-306" vertex="1">
                    <mxGeometry x="30" width="230" height="30" as="geometry">
                        <mxRectangle width="230" height="30" as="alternateBounds"/>
                    </mxGeometry>
                </mxCell>
                <mxCell id="XEnF2gIqBOLM984kFY1K-309" style="shape=tableRow;horizontal=0;startSize=0;swimlaneHead=0;swimlaneBody=0;fillColor=none;collapsible=0;dropTarget=0;points=[[0,0.5],[1,0.5]];portConstraint=eastwest;top=0;left=0;right=0;bottom=0;" parent="XEnF2gIqBOLM984kFY1K-302" vertex="1">
                    <mxGeometry y="90" width="260" height="30" as="geometry"/>
                </mxCell>
                <mxCell id="XEnF2gIqBOLM984kFY1K-310" style="shape=partialRectangle;connectable=0;fillColor=none;top=0;left=0;bottom=0;right=0;editable=1;overflow=hidden;whiteSpace=wrap;html=1;" parent="XEnF2gIqBOLM984kFY1K-309" vertex="1">
                    <mxGeometry width="30" height="30" as="geometry">
                        <mxRectangle width="30" height="30" as="alternateBounds"/>
                    </mxGeometry>
                </mxCell>
                <mxCell id="XEnF2gIqBOLM984kFY1K-311" value="First_name: VARCHAR (223) NOT NULL" style="shape=partialRectangle;connectable=0;fillColor=none;top=0;left=0;bottom=0;right=0;align=left;spacingLeft=6;overflow=hidden;whiteSpace=wrap;html=1;" parent="XEnF2gIqBOLM984kFY1K-309" vertex="1">
                    <mxGeometry x="30" width="230" height="30" as="geometry">
                        <mxRectangle width="230" height="30" as="alternateBounds"/>
                    </mxGeometry>
                </mxCell>
                <mxCell id="XEnF2gIqBOLM984kFY1K-312" style="shape=tableRow;horizontal=0;startSize=0;swimlaneHead=0;swimlaneBody=0;fillColor=none;collapsible=0;dropTarget=0;points=[[0,0.5],[1,0.5]];portConstraint=eastwest;top=0;left=0;right=0;bottom=0;" parent="XEnF2gIqBOLM984kFY1K-302" vertex="1">
                    <mxGeometry y="120" width="260" height="30" as="geometry"/>
                </mxCell>
                <mxCell id="XEnF2gIqBOLM984kFY1K-313" style="shape=partialRectangle;connectable=0;fillColor=none;top=0;left=0;bottom=0;right=0;editable=1;overflow=hidden;whiteSpace=wrap;html=1;" parent="XEnF2gIqBOLM984kFY1K-312" vertex="1">
                    <mxGeometry width="30" height="30" as="geometry">
                        <mxRectangle width="30" height="30" as="alternateBounds"/>
                    </mxGeometry>
                </mxCell>
                <mxCell id="XEnF2gIqBOLM984kFY1K-314" value="Patronymic: VARCHAR&amp;nbsp;(223)" style="shape=partialRectangle;connectable=0;fillColor=none;top=0;left=0;bottom=0;right=0;align=left;spacingLeft=6;overflow=hidden;whiteSpace=wrap;html=1;" parent="XEnF2gIqBOLM984kFY1K-312" vertex="1">
                    <mxGeometry x="30" width="230" height="30" as="geometry">
                        <mxRectangle width="230" height="30" as="alternateBounds"/>
                    </mxGeometry>
                </mxCell>
                <mxCell id="XEnF2gIqBOLM984kFY1K-315" value="" style="shape=tableRow;horizontal=0;startSize=0;swimlaneHead=0;swimlaneBody=0;fillColor=none;collapsible=0;dropTarget=0;points=[[0,0.5],[1,0.5]];portConstraint=eastwest;top=0;left=0;right=0;bottom=0;" parent="XEnF2gIqBOLM984kFY1K-302" vertex="1">
                    <mxGeometry y="150" width="260" height="30" as="geometry"/>
                </mxCell>
                <mxCell id="XEnF2gIqBOLM984kFY1K-316" value="" style="shape=partialRectangle;connectable=0;fillColor=none;top=0;left=0;bottom=0;right=0;editable=1;overflow=hidden;whiteSpace=wrap;html=1;" parent="XEnF2gIqBOLM984kFY1K-315" vertex="1">
                    <mxGeometry width="30" height="30" as="geometry">
                        <mxRectangle width="30" height="30" as="alternateBounds"/>
                    </mxGeometry>
                </mxCell>
                <mxCell id="XEnF2gIqBOLM984kFY1K-317" value="Date_of_birth: DATE NOT NULL" style="shape=partialRectangle;connectable=0;fillColor=none;top=0;left=0;bottom=0;right=0;align=left;spacingLeft=6;overflow=hidden;whiteSpace=wrap;html=1;" parent="XEnF2gIqBOLM984kFY1K-315" vertex="1">
                    <mxGeometry x="30" width="230" height="30" as="geometry">
                        <mxRectangle width="230" height="30" as="alternateBounds"/>
                    </mxGeometry>
                </mxCell>
                <mxCell id="XEnF2gIqBOLM984kFY1K-318" value="" style="shape=tableRow;horizontal=0;startSize=0;swimlaneHead=0;swimlaneBody=0;fillColor=none;collapsible=0;dropTarget=0;points=[[0,0.5],[1,0.5]];portConstraint=eastwest;top=0;left=0;right=0;bottom=0;" parent="XEnF2gIqBOLM984kFY1K-302" vertex="1">
                    <mxGeometry y="180" width="260" height="30" as="geometry"/>
                </mxCell>
                <mxCell id="XEnF2gIqBOLM984kFY1K-319" value="" style="shape=partialRectangle;connectable=0;fillColor=none;top=0;left=0;bottom=0;right=0;editable=1;overflow=hidden;whiteSpace=wrap;html=1;" parent="XEnF2gIqBOLM984kFY1K-318" vertex="1">
                    <mxGeometry width="30" height="30" as="geometry">
                        <mxRectangle width="30" height="30" as="alternateBounds"/>
                    </mxGeometry>
                </mxCell>
                <mxCell id="XEnF2gIqBOLM984kFY1K-320" value="Gender: ENUM NOT NULL" style="shape=partialRectangle;connectable=0;fillColor=none;top=0;left=0;bottom=0;right=0;align=left;spacingLeft=6;overflow=hidden;whiteSpace=wrap;html=1;" parent="XEnF2gIqBOLM984kFY1K-318" vertex="1">
                    <mxGeometry x="30" width="230" height="30" as="geometry">
                        <mxRectangle width="230" height="30" as="alternateBounds"/>
                    </mxGeometry>
                </mxCell>
                <mxCell id="XEnF2gIqBOLM984kFY1K-321" style="shape=tableRow;horizontal=0;startSize=0;swimlaneHead=0;swimlaneBody=0;fillColor=none;collapsible=0;dropTarget=0;points=[[0,0.5],[1,0.5]];portConstraint=eastwest;top=0;left=0;right=0;bottom=0;" parent="XEnF2gIqBOLM984kFY1K-302" vertex="1">
                    <mxGeometry y="210" width="260" height="30" as="geometry"/>
                </mxCell>
                <mxCell id="XEnF2gIqBOLM984kFY1K-322" value="FK" style="shape=partialRectangle;connectable=0;fillColor=none;top=0;left=0;bottom=0;right=0;editable=1;overflow=hidden;whiteSpace=wrap;html=1;" parent="XEnF2gIqBOLM984kFY1K-321" vertex="1">
                    <mxGeometry width="30" height="30" as="geometry">
                        <mxRectangle width="30" height="30" as="alternateBounds"/>
                    </mxGeometry>
                </mxCell>
                <mxCell id="XEnF2gIqBOLM984kFY1K-323" value="Service_ID: UUID&amp;nbsp;" style="shape=partialRectangle;connectable=0;fillColor=none;top=0;left=0;bottom=0;right=0;align=left;spacingLeft=6;overflow=hidden;whiteSpace=wrap;html=1;" parent="XEnF2gIqBOLM984kFY1K-321" vertex="1">
                    <mxGeometry x="30" width="230" height="30" as="geometry">
                        <mxRectangle width="230" height="30" as="alternateBounds"/>
                    </mxGeometry>
                </mxCell>
                <mxCell id="XEnF2gIqBOLM984kFY1K-324" style="shape=tableRow;horizontal=0;startSize=0;swimlaneHead=0;swimlaneBody=0;fillColor=none;collapsible=0;dropTarget=0;points=[[0,0.5],[1,0.5]];portConstraint=eastwest;top=0;left=0;right=0;bottom=0;" parent="XEnF2gIqBOLM984kFY1K-302" vertex="1">
                    <mxGeometry y="240" width="260" height="30" as="geometry"/>
                </mxCell>
                <mxCell id="XEnF2gIqBOLM984kFY1K-325" style="shape=partialRectangle;connectable=0;fillColor=none;top=0;left=0;bottom=0;right=0;editable=1;overflow=hidden;whiteSpace=wrap;html=1;" parent="XEnF2gIqBOLM984kFY1K-324" vertex="1">
                    <mxGeometry width="30" height="30" as="geometry">
                        <mxRectangle width="30" height="30" as="alternateBounds"/>
                    </mxGeometry>
                </mxCell>
                <mxCell id="XEnF2gIqBOLM984kFY1K-326" value="E-mail: VARCHAR (255) UNIQUE&amp;nbsp;NOT NULL" style="shape=partialRectangle;connectable=0;fillColor=none;top=0;left=0;bottom=0;right=0;align=left;spacingLeft=6;overflow=hidden;whiteSpace=wrap;html=1;" parent="XEnF2gIqBOLM984kFY1K-324" vertex="1">
                    <mxGeometry x="30" width="230" height="30" as="geometry">
                        <mxRectangle width="230" height="30" as="alternateBounds"/>
                    </mxGeometry>
                </mxCell>
                <mxCell id="XEnF2gIqBOLM984kFY1K-327" style="shape=tableRow;horizontal=0;startSize=0;swimlaneHead=0;swimlaneBody=0;fillColor=none;collapsible=0;dropTarget=0;points=[[0,0.5],[1,0.5]];portConstraint=eastwest;top=0;left=0;right=0;bottom=0;" parent="XEnF2gIqBOLM984kFY1K-302" vertex="1">
                    <mxGeometry y="270" width="260" height="30" as="geometry"/>
                </mxCell>
                <mxCell id="XEnF2gIqBOLM984kFY1K-328" style="shape=partialRectangle;connectable=0;fillColor=none;top=0;left=0;bottom=0;right=0;editable=1;overflow=hidden;whiteSpace=wrap;html=1;" parent="XEnF2gIqBOLM984kFY1K-327" vertex="1">
                    <mxGeometry width="30" height="30" as="geometry">
                        <mxRectangle width="30" height="30" as="alternateBounds"/>
                    </mxGeometry>
                </mxCell>
                <mxCell id="XEnF2gIqBOLM984kFY1K-329" value="Phone: VARCHAR (15) UNIQUE&amp;nbsp;NOT NULL" style="shape=partialRectangle;connectable=0;fillColor=none;top=0;left=0;bottom=0;right=0;align=left;spacingLeft=6;overflow=hidden;whiteSpace=wrap;html=1;" parent="XEnF2gIqBOLM984kFY1K-327" vertex="1">
                    <mxGeometry x="30" width="230" height="30" as="geometry">
                        <mxRectangle width="230" height="30" as="alternateBounds"/>
                    </mxGeometry>
                </mxCell>
                <mxCell id="XEnF2gIqBOLM984kFY1K-330" style="edgeStyle=orthogonalEdgeStyle;rounded=0;orthogonalLoop=1;jettySize=auto;html=1;exitX=0;exitY=0.5;exitDx=0;exitDy=0;entryX=1;entryY=0.5;entryDx=0;entryDy=0;endArrow=ERzeroToMany;endFill=0;startArrow=ERmandOne;startFill=0;" parent="1" edge="1">
                    <mxGeometry relative="1" as="geometry">
                        <mxPoint x="390" y="220" as="sourcePoint"/>
                        <mxPoint x="70" y="560" as="targetPoint"/>
                        <Array as="points">
                            <mxPoint x="220" y="220"/>
                            <mxPoint x="220" y="560"/>
                        </Array>
                    </mxGeometry>
                </mxCell>
                <mxCell id="XEnF2gIqBOLM984kFY1K-331" value="Службы" style="shape=table;startSize=30;container=1;collapsible=1;childLayout=tableLayout;fixedRows=1;rowLines=0;fontStyle=1;align=center;resizeLast=1;html=1;" parent="1" vertex="1">
                    <mxGeometry x="334" y="470" width="256" height="120" as="geometry"/>
                </mxCell>
                <mxCell id="XEnF2gIqBOLM984kFY1K-332" value="" style="shape=tableRow;horizontal=0;startSize=0;swimlaneHead=0;swimlaneBody=0;fillColor=none;collapsible=0;dropTarget=0;points=[[0,0.5],[1,0.5]];portConstraint=eastwest;top=0;left=0;right=0;bottom=1;" parent="XEnF2gIqBOLM984kFY1K-331" vertex="1">
                    <mxGeometry y="30" width="256" height="30" as="geometry"/>
                </mxCell>
                <mxCell id="XEnF2gIqBOLM984kFY1K-333" value="PK" style="shape=partialRectangle;connectable=0;fillColor=none;top=0;left=0;bottom=0;right=0;fontStyle=1;overflow=hidden;whiteSpace=wrap;html=1;" parent="XEnF2gIqBOLM984kFY1K-332" vertex="1">
                    <mxGeometry width="30" height="30" as="geometry">
                        <mxRectangle width="30" height="30" as="alternateBounds"/>
                    </mxGeometry>
                </mxCell>
                <mxCell id="XEnF2gIqBOLM984kFY1K-334" value="Service_ID: UUID PK" style="shape=partialRectangle;connectable=0;fillColor=none;top=0;left=0;bottom=0;right=0;align=left;spacingLeft=6;fontStyle=5;overflow=hidden;whiteSpace=wrap;html=1;" parent="XEnF2gIqBOLM984kFY1K-332" vertex="1">
                    <mxGeometry x="30" width="226" height="30" as="geometry">
                        <mxRectangle width="226" height="30" as="alternateBounds"/>
                    </mxGeometry>
                </mxCell>
                <mxCell id="XEnF2gIqBOLM984kFY1K-335" value="" style="shape=tableRow;horizontal=0;startSize=0;swimlaneHead=0;swimlaneBody=0;fillColor=none;collapsible=0;dropTarget=0;points=[[0,0.5],[1,0.5]];portConstraint=eastwest;top=0;left=0;right=0;bottom=0;" parent="XEnF2gIqBOLM984kFY1K-331" vertex="1">
                    <mxGeometry y="60" width="256" height="30" as="geometry"/>
                </mxCell>
                <mxCell id="XEnF2gIqBOLM984kFY1K-336" value="" style="shape=partialRectangle;connectable=0;fillColor=none;top=0;left=0;bottom=0;right=0;editable=1;overflow=hidden;whiteSpace=wrap;html=1;" parent="XEnF2gIqBOLM984kFY1K-335" vertex="1">
                    <mxGeometry width="30" height="30" as="geometry">
                        <mxRectangle width="30" height="30" as="alternateBounds"/>
                    </mxGeometry>
                </mxCell>
                <mxCell id="XEnF2gIqBOLM984kFY1K-337" value="NAME: VARCHAR (255) UNIQUE&amp;nbsp;&amp;nbsp;NOT NULL" style="shape=partialRectangle;connectable=0;fillColor=none;top=0;left=0;bottom=0;right=0;align=left;spacingLeft=6;overflow=hidden;whiteSpace=wrap;html=1;" parent="XEnF2gIqBOLM984kFY1K-335" vertex="1">
                    <mxGeometry x="30" width="226" height="30" as="geometry">
                        <mxRectangle width="226" height="30" as="alternateBounds"/>
                    </mxGeometry>
                </mxCell>
                <mxCell id="XEnF2gIqBOLM984kFY1K-338" value="" style="shape=tableRow;horizontal=0;startSize=0;swimlaneHead=0;swimlaneBody=0;fillColor=none;collapsible=0;dropTarget=0;points=[[0,0.5],[1,0.5]];portConstraint=eastwest;top=0;left=0;right=0;bottom=0;" parent="XEnF2gIqBOLM984kFY1K-331" vertex="1">
                    <mxGeometry y="90" width="256" height="30" as="geometry"/>
                </mxCell>
                <mxCell id="XEnF2gIqBOLM984kFY1K-339" value="" style="shape=partialRectangle;connectable=0;fillColor=none;top=0;left=0;bottom=0;right=0;editable=1;overflow=hidden;whiteSpace=wrap;html=1;" parent="XEnF2gIqBOLM984kFY1K-338" vertex="1">
                    <mxGeometry width="30" height="30" as="geometry">
                        <mxRectangle width="30" height="30" as="alternateBounds"/>
                    </mxGeometry>
                </mxCell>
                <mxCell id="XEnF2gIqBOLM984kFY1K-340" value="District: ENUM NOT NULL" style="shape=partialRectangle;connectable=0;fillColor=none;top=0;left=0;bottom=0;right=0;align=left;spacingLeft=6;overflow=hidden;whiteSpace=wrap;html=1;" parent="XEnF2gIqBOLM984kFY1K-338" vertex="1">
                    <mxGeometry x="30" width="226" height="30" as="geometry">
                        <mxRectangle width="226" height="30" as="alternateBounds"/>
                    </mxGeometry>
                </mxCell>
                <mxCell id="XEnF2gIqBOLM984kFY1K-341" style="edgeStyle=orthogonalEdgeStyle;rounded=0;orthogonalLoop=1;jettySize=auto;html=1;exitX=0;exitY=0.5;exitDx=0;exitDy=0;entryX=0;entryY=0.5;entryDx=0;entryDy=0;startArrow=ERmandOne;startFill=0;endArrow=ERmandOne;endFill=0;" parent="1" source="XEnF2gIqBOLM984kFY1K-281" target="XEnF2gIqBOLM984kFY1K-228" edge="1">
                    <mxGeometry relative="1" as="geometry"/>
                </mxCell>
                <mxCell id="XEnF2gIqBOLM984kFY1K-342" style="edgeStyle=orthogonalEdgeStyle;rounded=0;orthogonalLoop=1;jettySize=auto;html=1;exitX=0;exitY=0.5;exitDx=0;exitDy=0;entryX=0;entryY=0.5;entryDx=0;entryDy=0;endArrow=ERzeroToMany;endFill=0;startArrow=ERmandOne;startFill=0;" parent="1" source="XEnF2gIqBOLM984kFY1K-332" target="XEnF2gIqBOLM984kFY1K-321" edge="1">
                    <mxGeometry relative="1" as="geometry">
                        <Array as="points">
                            <mxPoint x="290" y="515"/>
                            <mxPoint x="290" y="385"/>
                        </Array>
                    </mxGeometry>
                </mxCell>
                <mxCell id="XEnF2gIqBOLM984kFY1K-343" style="edgeStyle=orthogonalEdgeStyle;rounded=0;orthogonalLoop=1;jettySize=auto;html=1;exitX=0;exitY=0.5;exitDx=0;exitDy=0;endArrow=ERoneToMany;endFill=0;startArrow=ERmandOne;startFill=0;entryX=1;entryY=0.5;entryDx=0;entryDy=0;" parent="1" source="XEnF2gIqBOLM984kFY1K-256" target="XEnF2gIqBOLM984kFY1K-299" edge="1">
                    <mxGeometry relative="1" as="geometry">
                        <mxPoint x="70" y="626.8421052631579" as="targetPoint"/>
                        <Array as="points">
                            <mxPoint x="130" y="120"/>
                            <mxPoint x="130" y="635"/>
                        </Array>
                    </mxGeometry>
                </mxCell>
                <mxCell id="XEnF2gIqBOLM984kFY1K-344" style="edgeStyle=orthogonalEdgeStyle;rounded=0;orthogonalLoop=1;jettySize=auto;html=1;exitX=0;exitY=0.5;exitDx=0;exitDy=0;entryX=0;entryY=0.5;entryDx=0;entryDy=0;startArrow=ERmandOne;startFill=0;endArrow=ERmandOne;endFill=0;" parent="1" source="XEnF2gIqBOLM984kFY1K-199" target="XEnF2gIqBOLM984kFY1K-284" edge="1">
                    <mxGeometry relative="1" as="geometry">
                        <Array as="points">
                            <mxPoint x="-430" y="765"/>
                            <mxPoint x="-430" y="485"/>
                        </Array>
                    </mxGeometry>
                </mxCell>
            </root>
        </mxGraphModel>
    </diagram>
</mxfile>